HIERARCHY
ROOT Hips
{
	OFFSET 0.000000 0.000000 0.000000 
	CHANNELS 6 Xposition Yposition Zposition Zrotation Yrotation Xrotation
	JOINT LeftUpLeg
	{
		OFFSET 1.363060 -1.794630 0.839290 
		CHANNELS 3 Zrotation Yrotation Xrotation
		JOINT LeftLeg
		{
			OFFSET 2.448110 -6.726130 0.000000 
			CHANNELS 3 Zrotation Yrotation Xrotation
			JOINT LeftFoot
			{
				OFFSET 2.562200 -7.039590 0.000000 
				CHANNELS 3 Zrotation Yrotation Xrotation
				JOINT LeftToeBase
				{
					OFFSET 0.157640 -0.433110 2.322550 
					CHANNELS 3 Zrotation Yrotation Xrotation
					End Site
					{
						OFFSET 0.000000 0.000000 0.000000 
					}
				}
			}
		}
	}
	JOINT RightUpLeg
	{
		OFFSET -1.305520 -1.794630 0.839290 
		CHANNELS 3 Zrotation Yrotation Xrotation
		JOINT RightLeg
		{
			OFFSET -2.542530 -6.985550 0.000000 
			CHANNELS 3 Zrotation Yrotation Xrotation
			JOINT RightFoot
			{
				OFFSET -2.568260 -7.056230 0.000000 
				CHANNELS 3 Zrotation Yrotation Xrotation
				JOINT RightToeBase
				{
					OFFSET -0.164730 -0.452590 2.363150 
					CHANNELS 3 Zrotation Yrotation Xrotation
					End Site
					{
						OFFSET 0.000000 0.000000 0.000000 
					}
				}
			}
		}
	}
	JOINT Spine
	{
		OFFSET 0.028270 2.035590 -0.193380 
		CHANNELS 3 Zrotation Yrotation Xrotation
		JOINT Spine1
		{
			OFFSET 0.056720 2.048850 -0.042750 
			CHANNELS 3 Zrotation Yrotation Xrotation
			JOINT Neck1
			{
				OFFSET -0.054170 1.746240 0.172020 
				CHANNELS 3 Zrotation Yrotation Xrotation
				JOINT Head
				{
					OFFSET 0.104070 1.761360 -0.123970 
					CHANNELS 3 Zrotation Yrotation Xrotation
					End Site
					{
						OFFSET 0.000000 0.000000 0.000000 
					}
				}
			}
			JOINT LeftArm
			{
				OFFSET 3.362410 1.200890 -0.311210 
				CHANNELS 3 Zrotation Yrotation Xrotation
				JOINT LeftForeArm
				{
					OFFSET 4.983000 -0.000000 -0.000000 
					CHANNELS 3 Zrotation Yrotation Xrotation
					JOINT LeftHand
					{
						OFFSET 3.483560 -0.000000 -0.000000 
						CHANNELS 3 Zrotation Yrotation Xrotation
						JOINT LeftHandIndex1
						{
							OFFSET 0.715260 -0.000000 -0.000000 
							CHANNELS 3 Zrotation Yrotation Xrotation
							End Site
							{
								OFFSET 0.000000 0.000000 0.000000 
							}
						}
					}
				}
			}
			JOINT RightArm
			{
				OFFSET -3.136600 1.374050 -0.404650 
				CHANNELS 3 Zrotation Yrotation Xrotation
				JOINT RightForeArm
				{
					OFFSET -5.241900 -0.000000 -0.000000 
					CHANNELS 3 Zrotation Yrotation Xrotation
					JOINT RightHand
					{
						OFFSET -3.444170 -0.000000 -0.000000 
						CHANNELS 3 Zrotation Yrotation Xrotation
						JOINT RightHandIndex1
						{
							OFFSET -0.622530 -0.000000 -0.000000 
							CHANNELS 3 Zrotation Yrotation Xrotation
							End Site
							{
								OFFSET 0.000000 0.000000 0.000000 
							}
						}
					}
				}
			}
		}
	}
}
MOTION
Frames: 6
Frame Time: 0.041667
-2.871471 17.918841 21.765815 -173.313504 19.385837 -175.647981 -24.858725 -6.393672 -10.126243 1.101209 8.974067 27.400214 -1.915594 11.367790 -15.323828 0.083100 1.859400 5.117200 26.809979 16.859793 -73.170134 -17.467521 -22.304831 81.602143 2.085793 -12.484277 7.447346 -0.009700 0.635100 -1.745200 10.632919 0.901827 -11.783096 2.312614 0.557350 -2.449547 1.882414 2.010475 28.863997 1.812300 1.383800 14.005900 35.655304 -62.485748 -60.653899 84.661751 -59.111544 -57.615122 1.435376 0.530160 -93.580817 -7.125000 0.000000 0.000000 70.835672 17.320431 56.697805 -141.907890 41.704301 -103.712046 -1.636561 -2.256427 -9.747946 7.125000 0.000000 0.000000 
-2.875344 17.921797 21.762247 -173.281360 19.419191 -175.696423 -24.846171 -6.375681 -10.065933 1.098983 8.962579 27.378652 -1.909611 11.338732 -15.301093 0.088100 1.914900 5.270600 26.892888 16.820615 -72.997880 -17.452440 -22.299663 81.573932 2.066367 -12.370678 7.338689 -0.012600 0.724100 -1.990000 10.634196 0.907454 -11.621641 2.275514 0.565569 -2.467485 2.326525 1.880148 28.658297 2.015800 1.337900 13.916900 35.672048 -62.489952 -60.995572 84.659263 -59.107221 -57.593819 1.420442 0.534166 -93.586269 -7.125000 0.000000 0.000000 70.970760 17.494651 56.917841 -141.774345 41.790762 -103.645238 -1.651405 -2.239002 -9.574560 7.125000 0.000000 0.000000 
-2.877994 17.922918 21.761126 -173.334038 19.423787 -175.711717 -24.902820 -6.303047 -10.070657 1.093648 8.949050 27.341675 -1.893892 11.269098 -15.246491 0.081000 1.835700 5.051900 26.858522 16.789041 -72.949548 -17.467161 -22.301126 81.615452 2.077796 -12.393022 7.252660 -0.009500 0.630400 -1.732300 10.600535 0.928129 -11.620697 2.318146 0.580201 -2.529549 2.450526 1.644754 29.019036 2.093300 1.236600 14.116200 35.512295 -62.574428 -61.218507 84.879826 -59.128523 -57.766257 1.410045 0.539667 -93.498555 -7.125000 0.000000 0.000000 71.285531 17.632199 57.238743 -141.633735 41.907765 -103.538131 -1.611732 -2.258538 -9.560782 7.125000 0.000000 0.000000 
-2.879624 17.924447 21.760922 -173.357513 19.397246 -175.633684 -24.908729 -6.248196 -10.162014 1.087551 8.942510 27.312872 -1.856831 11.138670 -15.238449 0.074900 1.765400 4.857600 26.826143 16.779875 -73.033322 -17.496117 -22.307542 81.689720 2.110410 -12.505222 7.177436 -0.002600 0.327400 -0.899500 10.494177 0.959437 -11.588793 2.309240 0.600865 -2.475611 2.528243 1.397279 29.173536 2.126700 1.130000 14.201200 35.466057 -62.683691 -61.422228 85.088406 -59.157019 -57.940267 1.427207 0.528415 -93.124633 -7.125000 0.000000 0.000000 71.798495 17.957158 57.523283 -141.229990 42.216665 -103.242200 -1.571995 -2.280760 -9.289260 7.125000 0.000000 0.000000 
-2.882886 17.925160 21.758884 -173.363887 19.346025 -175.578911 -24.909002 -6.272225 -10.201835 1.082728 8.935902 27.289008 -1.830799 11.044578 -15.223856 0.073600 1.750600 4.817000 26.857625 16.699667 -73.064734 -17.522115 -22.314570 81.764611 2.104211 -12.472585 7.156814 -0.004600 0.439400 -1.207200 10.369821 0.964203 -11.494838 2.244089 0.607361 -2.407853 2.715187 1.277642 28.970696 2.198000 1.080300 14.100900 35.511358 -62.701931 -61.712897 85.342935 -59.195910 -58.143787 1.428286 0.532164 -93.362496 -7.125000 0.000000 0.000000 71.922564 18.073871 57.576044 -141.162683 42.266527 -103.205830 -1.602632 -2.274112 -9.158579 7.125000 0.000000 0.000000 
-2.885740 17.926587 21.757559 -173.400312 19.305518 -175.551231 -24.942175 -6.293872 -10.241499 1.085234 8.940707 27.300113 -1.811114 10.968366 -15.189475 0.072800 1.740900 4.790200 26.887209 16.591062 -73.067200 -17.537826 -22.320095 81.816470 2.057435 -12.308916 7.260894 -0.011400 0.690700 -1.898200 10.247179 0.996038 -11.495878 2.207657 0.624641 -2.425317 2.806119 1.150525 28.943600 2.232800 1.022900 14.106600 35.456172 -62.803826 -62.016894 85.682740 -59.238640 -58.421107 1.411609 0.545913 -93.650848 -7.125000 0.000000 0.000000 71.910293 18.009346 57.664695 -141.239664 42.211227 -103.287312 -1.662755 -2.254992 -9.218337 7.125000 0.000000 0.000000 
